# xmcd
#
# Track frame offsets:
# 150
# 11977
# 22802
# 33895
# 45112
# 63572
# 75077
# 88700
# 104800
# 115997
# 130422
# 143582
# 154830
# 166057
# 176925
#
# Disc length: 2484 seconds
#
#
# Revision: 1
# Processed by: cddbd v1.5.1PL0 Copyright (c) Steve Scherf et al.
# Submitted via: FreeRIP 2.942 
#
DISCID=b809b20f
DTITLE=Raizes de Arcoverde - Gode Pavao
DYEAR=2002
DGENRE=Samba de Coco
TTITLE0=Barra da saia
TTITLE1=Gode pavao
TTITLE2=Abelha aripuah
TTITLE3=Despedida de amor
TTITLE4=Coqueiro novo-Folguedo pra selecao
TTITLE5=O canto do uirapuru
TTITLE6=Menina rica
TTITLE7=Olho dAgua dos Brejos
TTITLE8=Roseira oh rosah
TTITLE9=Eh noite de S Joao-Quero ver no balance
TTITLE10=Bote essa menina pra dancar
TTITLE11=O amor do bacurau
TTITLE12=Galinha zabele
TTITLE13=Aperto de mao
TTITLE14=Nao brinco mais
EXTD=YEAR: 2002
EXTT0=
EXTT1=
EXTT2=
EXTT3=
EXTT4=
EXTT5=
EXTT6=
EXTT7=
EXTT8=
EXTT9=
EXTT10=
EXTT11=
EXTT12=
EXTT13=
EXTT14=
PLAYORDER=
